<svg width="24" height="24" viewBox="0 0 24 24" fill="none" xmlns="http://www.w3.org/2000/svg">
<rect width="24" height="24" rx="12" fill="black" fill-opacity="0.05"/>
<path d="M13.7562 9.27439C13.7562 9.37702 13.7492 9.47966 13.7363 9.58114C13.7422 9.54031 13.748 9.49833 13.7527 9.4575C13.7247 9.66045 13.671 9.85756 13.5929 10.0465C13.608 10.0092 13.6244 9.97186 13.6395 9.93454C13.5614 10.1188 13.4611 10.2914 13.3386 10.4501L13.4121 10.3556C13.2908 10.5119 13.1497 10.653 12.9934 10.7743L13.0878 10.7008C12.9292 10.8221 12.7566 10.9236 12.5723 11.0017C12.6096 10.9866 12.647 10.9703 12.6843 10.9551C12.4953 11.0332 12.2982 11.0869 12.0953 11.1149C12.1361 11.1091 12.1781 11.1032 12.2189 11.0986C12.0148 11.1254 11.8095 11.1254 11.6054 11.0986C11.6462 11.1044 11.6882 11.1102 11.729 11.1149C11.5261 11.0869 11.329 11.0332 11.14 10.9551C11.1774 10.9703 11.2147 10.9866 11.252 11.0017C11.0677 10.9236 10.8951 10.8233 10.7365 10.7008L10.8309 10.7743C10.6747 10.653 10.5335 10.5119 10.4122 10.3556L10.4857 10.4501C10.3644 10.2914 10.2629 10.1188 10.1848 9.93454C10.1999 9.97186 10.2163 10.0092 10.2314 10.0465C10.1533 9.85756 10.0996 9.66045 10.0716 9.4575C10.0775 9.49833 10.0833 9.54031 10.088 9.58114C10.0611 9.37703 10.0611 9.17175 10.088 8.96764C10.0821 9.00846 10.0763 9.05045 10.0716 9.09127C10.0996 8.88832 10.1533 8.69121 10.2314 8.50226C10.2163 8.53959 10.1999 8.57691 10.1848 8.61423C10.2629 8.42995 10.3632 8.25733 10.4857 8.09871L10.4122 8.19318C10.5335 8.03689 10.6747 7.89576 10.8309 7.77446L10.7365 7.84794C10.8951 7.72664 11.0677 7.62517 11.252 7.54702C11.2147 7.56218 11.1774 7.57851 11.14 7.59368C11.329 7.51553 11.5261 7.46188 11.729 7.43389C11.6882 7.43972 11.6462 7.44555 11.6054 7.45022C11.8095 7.42339 12.0148 7.42339 12.2189 7.45022C12.1781 7.44438 12.1361 7.43855 12.0953 7.43389C12.2982 7.46188 12.4953 7.51553 12.6843 7.59368C12.647 7.57851 12.6096 7.56218 12.5723 7.54702C12.7566 7.62517 12.9292 7.72547 13.0878 7.84794L12.9934 7.77446C13.1497 7.89576 13.2908 8.03689 13.4121 8.19318L13.3386 8.09871C13.4599 8.25733 13.5614 8.42995 13.6395 8.61423C13.6244 8.57691 13.608 8.53959 13.5929 8.50226C13.671 8.69121 13.7247 8.88832 13.7527 9.09127C13.7468 9.05045 13.741 9.00846 13.7363 8.96764C13.7492 9.06911 13.755 9.17175 13.7562 9.27439C13.7573 9.51815 13.9696 9.75259 14.2227 9.74093C14.4746 9.72926 14.6904 9.53565 14.6893 9.27439C14.6869 8.7157 14.519 8.14419 14.1901 7.68932C14.1014 7.56685 14.0069 7.44672 13.902 7.33825C13.7958 7.22861 13.6792 7.13413 13.5579 7.04199C13.3374 6.87404 13.0913 6.75041 12.8301 6.65476C11.7769 6.2687 10.5067 6.61278 9.79405 7.48054C9.69608 7.59951 9.60277 7.72314 9.52346 7.8561C9.44414 7.9879 9.38233 8.12786 9.32518 8.27016C9.21787 8.53375 9.16305 8.81368 9.14089 9.0971C9.09774 9.65228 9.24237 10.232 9.53162 10.7078C9.81038 11.1674 10.2314 11.5616 10.7236 11.7844C10.8683 11.8497 11.0164 11.9103 11.1704 11.9535C11.3231 11.9955 11.4783 12.0188 11.6357 12.0375C11.9227 12.0713 12.2154 12.048 12.4988 11.9908C13.5754 11.7715 14.477 10.8443 14.6438 9.75609C14.6683 9.59747 14.6869 9.43884 14.6869 9.27789C14.6881 9.03412 14.4711 8.79968 14.2204 8.81135C13.9684 8.81951 13.7562 9.01312 13.7562 9.27439ZM15.3039 16.5676H9.31934C9.05458 16.5676 8.78982 16.5699 8.52506 16.5676C8.4959 16.5676 8.46674 16.5652 8.43874 16.5617C8.47957 16.5676 8.52156 16.5734 8.56238 16.5781C8.51572 16.5711 8.4714 16.5582 8.42825 16.5407C8.46557 16.5559 8.50289 16.5722 8.54022 16.5874C8.49356 16.5676 8.45041 16.5419 8.40959 16.5104L8.50406 16.5839C8.46907 16.5547 8.43641 16.5233 8.40842 16.4883L8.4819 16.5827C8.45041 16.5419 8.42591 16.4988 8.40492 16.4521C8.42008 16.4894 8.43641 16.5267 8.45157 16.5641C8.43408 16.5209 8.42242 16.4754 8.41425 16.4299C8.42008 16.4708 8.42591 16.5128 8.43058 16.5536C8.41192 16.4124 8.42475 16.2632 8.42475 16.1209V15.6217C8.42475 15.4969 8.43175 15.3732 8.44808 15.2496C8.44224 15.2904 8.43641 15.3324 8.43175 15.3732C8.4644 15.1341 8.52739 14.8997 8.62186 14.6769C8.6067 14.7142 8.59037 14.7516 8.57521 14.7889C8.66618 14.5766 8.78282 14.3772 8.92395 14.194L8.85047 14.2885C8.9916 14.1077 9.15372 13.9445 9.33567 13.8033L9.2412 13.8768C9.42432 13.7357 9.62376 13.619 9.83604 13.5281C9.79872 13.5432 9.76139 13.5596 9.72407 13.5747C9.94685 13.4814 10.1801 13.4173 10.4204 13.3846C10.3796 13.3904 10.3376 13.3963 10.2968 13.4009C10.4694 13.3788 10.6408 13.3776 10.8146 13.3776H12.949C13.1415 13.3776 13.3328 13.3764 13.5252 13.4009C13.4844 13.3951 13.4424 13.3893 13.4016 13.3846C13.6407 13.4173 13.8751 13.4802 14.0979 13.5747C14.0606 13.5596 14.0233 13.5432 13.9859 13.5281C14.1982 13.619 14.3977 13.7357 14.5808 13.8768L14.4863 13.8033C14.6671 13.9445 14.8304 14.1066 14.9715 14.2885L14.898 14.194C15.0392 14.3772 15.1558 14.5766 15.2468 14.7889C15.2316 14.7516 15.2153 14.7142 15.2001 14.6769C15.2934 14.8997 15.3576 15.133 15.3902 15.3732C15.3844 15.3324 15.3786 15.2904 15.3739 15.2496C15.3961 15.4257 15.3972 15.6007 15.3972 15.778V16.3553C15.3972 16.4218 15.3996 16.4883 15.3914 16.5536C15.3972 16.5128 15.4031 16.4708 15.4077 16.4299C15.4007 16.4766 15.3879 16.5209 15.3704 16.5641C15.3856 16.5267 15.4019 16.4894 15.4171 16.4521C15.3972 16.4988 15.3716 16.5419 15.3401 16.5827L15.4136 16.4883C15.3844 16.5233 15.3529 16.5559 15.3179 16.5839L15.4124 16.5104C15.3716 16.5419 15.3284 16.5664 15.2818 16.5874C15.3191 16.5722 15.3564 16.5559 15.3937 16.5407C15.3506 16.5582 15.3051 16.5699 15.2596 16.5781C15.3004 16.5722 15.3424 16.5664 15.3832 16.5617C15.3576 16.5652 15.3308 16.5664 15.3039 16.5676C15.1838 16.5687 15.0602 16.6189 14.9738 16.704C14.8934 16.7845 14.8316 16.9175 14.8374 17.0341C14.849 17.2837 15.0427 17.5042 15.3039 17.5007C15.7576 17.4937 16.1565 17.1974 16.2895 16.7624C16.342 16.5897 16.3303 16.4043 16.3303 16.227C16.3303 15.8211 16.3432 15.4187 16.2732 15.0163C16.1705 14.4273 15.8743 13.8733 15.4684 13.4383C15.0625 13.0032 14.5166 12.6836 13.9393 12.5413C13.608 12.4597 13.2745 12.4469 12.9362 12.4469H10.8671C10.5207 12.4469 10.1766 12.4632 9.83954 12.553C9.26686 12.7046 8.728 13.0277 8.33027 13.4662C7.92905 13.9083 7.63862 14.4635 7.54415 15.056C7.48117 15.4537 7.49399 15.8526 7.49399 16.2538C7.49399 16.4381 7.4835 16.6306 7.54998 16.8067C7.63629 17.0329 7.77392 17.2114 7.9757 17.3455C8.13316 17.4493 8.33261 17.4995 8.51922 17.5018C8.6102 17.503 8.70118 17.5018 8.79215 17.5018H15.3051C15.5489 17.5018 15.7833 17.2872 15.7716 17.0353C15.76 16.781 15.5664 16.5676 15.3039 16.5676Z" fill="black"/>
</svg>
