<svg width="16" height="18" viewBox="0 0 16 18" fill="none" xmlns="http://www.w3.org/2000/svg">
<path fill-rule="evenodd" clip-rule="evenodd" d="M3.1401 15.1893L5.12662 13.5228L5.19153 13.5H13.5C13.5 13.5 13.9142 13.5 14.2071 13.2071C14.2071 13.2071 14.5 12.9142 14.5 12.5V4.5C14.5 4.5 14.5 4.08579 14.2071 3.79289C14.2071 3.79289 13.9142 3.5 13.5 3.5H2.5C2.5 3.5 2.08579 3.5 1.79289 3.79289C1.79289 3.79289 1.5 4.08579 1.5 4.5L1.50002 14.429C1.50002 14.429 1.50231 14.7184 1.65887 14.9619C1.65887 14.9619 1.81544 15.2054 2.07786 15.3276C2.07786 15.3276 2.34027 15.4498 2.62739 15.4129C2.62739 15.4129 2.9145 15.376 3.1401 15.1893ZM4.94051 12.5283C4.99376 12.5096 5.0498 12.5 5.10625 12.5H13.5V4.5H2.5L2.49998 14.421L4.55365 12.6982C4.59976 12.6595 4.65247 12.6295 4.70926 12.6095L4.94051 12.5283Z" fill="#1C1C1C"/>
<path d="M6 8H10C10.2761 8 10.5 7.77614 10.5 7.5C10.5 7.22386 10.2761 7 10 7H6C5.72386 7 5.5 7.22386 5.5 7.5C5.5 7.77614 5.72386 8 6 8Z" fill="#1C1C1C"/>
<path d="M6 10H10C10.2761 10 10.5 9.77614 10.5 9.5C10.5 9.22386 10.2761 9 10 9H6C5.72386 9 5.5 9.22386 5.5 9.5C5.5 9.77614 5.72386 10 6 10Z" fill="#1C1C1C"/>
</svg>
