<svg width="162" height="30" viewBox="0 0 162 30" fill="none" xmlns="http://www.w3.org/2000/svg">
<path d="M16.48 17.115C16.48 18.3328 17.4672 19.32 18.685 19.32C19.9028 19.32 20.89 18.3328 20.89 17.115C20.89 15.8972 19.9028 14.91 18.685 14.91C17.4672 14.91 16.48 15.8972 16.48 17.115ZM16.48 17.115H12.52M12.529 9.78046L8.5227 7.90068M17.4563 15.2838L15.7499 12.5868M21.3614 21.0478L19.7993 19.0181M9.38576 14.91L8.94346 13.6442M13.5077 24.1871L11.1361 19.1621M12.4788 25.491L8.49206 23.8124M20.4146 6.13228L16.5626 4.54736M8.21424 16.4431L5.41948 15.4583M5.71471 20.9176L4.02926 17.0428M24.8339 12.9223L23.091 9.05986M15.261 24.2577L17.6968 19.2078M19.6212 14.8708L21.743 9.12012M11.4669 15.1165L13.2172 12.5883M7.62497 21.0478L8.94346 18.8416M23.2908 20.8889L24.8339 17.0125M4.04881 12.9172L5.61085 8.94758M14.5 8.565L14.455 5.91M14.5 8.565C13.2822 8.565 12.295 9.55221 12.295 10.77C12.295 11.9878 13.2822 12.975 14.5 12.975C15.7178 12.975 16.705 11.9878 16.705 10.77C16.705 9.55221 15.7178 8.565 14.5 8.565ZM14.455 5.91C15.6728 5.91 16.66 4.92279 16.66 3.705C16.66 2.48721 15.6728 1.5 14.455 1.5C13.2372 1.5 12.25 2.48721 12.25 3.705C12.25 4.92279 13.2372 5.91 14.455 5.91ZM16.5551 9.77606L20.3987 7.71645M16.4812 25.4239L20.3337 23.6725M8.56314 6.0783L12.3572 4.3861M20.8249 16.5811L23.7044 15.6579M12.52 17.115C12.52 18.3328 11.5328 19.32 10.315 19.32C9.09721 19.32 8.11 18.3328 8.11 17.115C8.11 15.8972 9.09721 14.91 10.315 14.91C11.5328 14.91 12.52 15.8972 12.52 17.115ZM7.72158 10.6152L7.17288 9.05633M5.41 14.955C5.41 16.1728 4.42279 17.16 3.205 17.16C1.98721 17.16 1 16.1728 1 14.955C1 13.7372 1.98721 12.75 3.205 12.75C4.42279 12.75 5.41 13.7372 5.41 14.955ZM8.74 22.965C8.74 24.1828 7.75279 25.17 6.535 25.17C5.31721 25.17 4.33 24.1828 4.33 22.965C4.33 21.7472 5.31721 20.76 6.535 20.76C7.75279 20.76 8.74 21.7472 8.74 22.965ZM16.66 26.295C16.66 27.5128 15.6728 28.5 14.455 28.5C13.2372 28.5 12.25 27.5128 12.25 26.295C12.25 25.0772 13.2372 24.09 14.455 24.09C15.6728 24.09 16.66 25.0772 16.66 26.295ZM24.67 22.965C24.67 24.1828 23.6828 25.17 22.465 25.17C21.2472 25.17 20.26 24.1828 20.26 22.965C20.26 21.7472 21.2472 20.76 22.465 20.76C23.6828 20.76 24.67 21.7472 24.67 22.965ZM28 14.955C28 16.1728 27.0128 17.16 25.795 17.16C24.5772 17.16 23.59 16.1728 23.59 14.955C23.59 13.7372 24.5772 12.75 25.795 12.75C27.0128 12.75 28 13.7372 28 14.955ZM24.67 6.945C24.67 8.16279 23.6828 9.15 22.465 9.15C21.2472 9.15 20.26 8.16279 20.26 6.945C20.26 5.72721 21.2472 4.74 22.465 4.74C23.6828 4.74 24.67 5.72721 24.67 6.945ZM8.74 6.945C8.74 8.16279 7.75279 9.15 6.535 9.15C5.31721 9.15 4.33 8.16279 4.33 6.945C4.33 5.72721 5.31721 4.74 6.535 4.74C7.75279 4.74 8.74 5.72721 8.74 6.945Z" stroke="url(#paint0_linear_2178_4429)" stroke-width="1.08" stroke-linecap="round"/>
<path d="M39.3 20.5V11.84C39.3 11.3333 39.4333 10.9467 39.7 10.68C39.98 10.4133 40.3733 10.2867 40.88 10.3L47.06 10.46V12.7L41.88 12.56V20.5H39.3ZM47.8844 15.36C47.8844 13.7867 48.3577 12.5467 49.3044 11.64C50.251 10.72 51.4844 10.26 53.0044 10.26C54.5244 10.26 55.7444 10.7 56.6644 11.58C57.5977 12.46 58.0644 13.6533 58.0644 15.16V16H50.3244C50.351 16.7867 50.6044 17.42 51.0844 17.9C51.5777 18.3667 52.3177 18.6 53.3044 18.6C54.731 18.6 55.5777 18.06 55.8444 16.98H58.4244C58.251 17.9 57.731 18.7533 56.8644 19.54C55.9977 20.3133 54.811 20.7 53.3044 20.7C51.531 20.7 50.1844 20.1933 49.2644 19.18C48.3444 18.1667 47.8844 16.8933 47.8844 15.36ZM50.3244 14.44H55.6244C55.6244 13.84 55.4044 13.3467 54.9644 12.96C54.5377 12.5733 53.8844 12.38 53.0044 12.38C52.1244 12.38 51.4577 12.58 51.0044 12.98C50.551 13.3667 50.3244 13.8533 50.3244 14.44ZM62.8081 14.24C62.2215 14.24 61.7415 14.0533 61.3681 13.68C61.0081 13.2933 60.8281 12.8133 60.8281 12.24C60.8281 11.68 61.0081 11.2133 61.3681 10.84C61.7415 10.4533 62.2215 10.26 62.8081 10.26C63.3815 10.26 63.8548 10.4533 64.2281 10.84C64.6148 11.2133 64.8081 11.68 64.8081 12.24C64.8081 12.8 64.6148 13.2733 64.2281 13.66C63.8548 14.0467 63.3815 14.24 62.8081 14.24ZM62.8081 20.7C62.2215 20.7 61.7415 20.5133 61.3681 20.14C61.0081 19.7533 60.8281 19.2733 60.8281 18.7C60.8281 18.14 61.0081 17.6733 61.3681 17.3C61.7415 16.9267 62.2215 16.74 62.8081 16.74C63.3815 16.74 63.8548 16.9267 64.2281 17.3C64.6148 17.6733 64.8081 18.14 64.8081 18.7C64.8081 19.2733 64.6148 19.7533 64.2281 20.14C63.8548 20.5133 63.3815 20.7 62.8081 20.7Z" fill="url(#paint1_linear_2178_4429)"/>
<path d="M67.4008 13.44C67.4008 11.3467 68.0341 9.62 69.3008 8.26C70.5674 6.88667 72.2608 6.2 74.3808 6.2C76.2874 6.2 77.8341 6.70667 79.0208 7.72C80.2074 8.72 80.9074 10.0933 81.1208 11.84H78.5408C78.3808 10.7467 77.9341 9.90667 77.2008 9.32C76.4808 8.73333 75.5541 8.44 74.4208 8.44C73.0208 8.44 71.9274 8.88667 71.1408 9.78C70.3674 10.66 69.9808 11.88 69.9808 13.44C69.9808 15 70.3674 16.2267 71.1408 17.12C71.9274 18.0133 73.0208 18.46 74.4208 18.46C75.5541 18.46 76.4808 18.1667 77.2008 17.58C77.9341 16.98 78.3808 16.1333 78.5408 15.04H81.1208C80.9074 16.8 80.2074 18.1867 79.0208 19.2C77.8341 20.2 76.2874 20.7 74.3808 20.7C72.2608 20.7 70.5674 20.02 69.3008 18.66C68.0341 17.2867 67.4008 15.5467 67.4008 13.44ZM83.9947 19.3C82.968 18.3667 82.4547 17.0933 82.4547 15.48C82.4547 13.8667 82.968 12.5933 83.9947 11.66C85.0214 10.7267 86.348 10.26 87.9747 10.26C89.588 10.26 90.908 10.7267 91.9347 11.66C92.9614 12.5933 93.4747 13.8667 93.4747 15.48C93.4747 17.0933 92.9614 18.3667 91.9347 19.3C90.908 20.2333 89.588 20.7 87.9747 20.7C86.348 20.7 85.0214 20.2333 83.9947 19.3ZM85.8147 13.3C85.2947 13.8333 85.0347 14.56 85.0347 15.48C85.0347 16.4 85.2947 17.1267 85.8147 17.66C86.3347 18.1933 87.0547 18.46 87.9747 18.46C88.8947 18.46 89.6147 18.1933 90.1347 17.66C90.6547 17.1267 90.9147 16.4 90.9147 15.48C90.9147 14.56 90.6547 13.8333 90.1347 13.3C89.6147 12.7667 88.8947 12.5 87.9747 12.5C87.0547 12.5 86.3347 12.7667 85.8147 13.3ZM100.958 12.5C99.9713 12.5 99.198 12.8333 98.638 13.5C98.078 14.1533 97.798 15.1533 97.798 16.5V20.5H95.218V10.46H97.798V11.88L97.338 13.42H97.998C98.2113 12.4733 98.638 11.7133 99.278 11.14C99.9313 10.5533 100.778 10.26 101.818 10.26C103.058 10.26 104.025 10.6533 104.718 11.44C105.425 12.2133 105.778 13.3333 105.778 14.8V20.5H103.218V15.18C103.218 14.22 103.038 13.5333 102.678 13.12C102.331 12.7067 101.758 12.5 100.958 12.5ZM111.911 18.46L115.531 18.26V20.5L110.891 20.7C110.384 20.7133 109.998 20.5867 109.731 20.32C109.464 20.0533 109.331 19.66 109.331 19.14V12.7H107.011V10.46H109.331V8.3L111.911 7.5V10.46H115.131V12.7H111.911V18.46ZM117.288 20.5V11.84C117.288 11.3333 117.422 10.9467 117.688 10.68C117.968 10.4133 118.362 10.2867 118.868 10.3L125.048 10.46V12.7L119.868 12.56V20.5H117.288ZM127.413 19.3C126.386 18.3667 125.873 17.0933 125.873 15.48C125.873 13.8667 126.386 12.5933 127.413 11.66C128.439 10.7267 129.766 10.26 131.393 10.26C133.006 10.26 134.326 10.7267 135.353 11.66C136.379 12.5933 136.893 13.8667 136.893 15.48C136.893 17.0933 136.379 18.3667 135.353 19.3C134.326 20.2333 133.006 20.7 131.393 20.7C129.766 20.7 128.439 20.2333 127.413 19.3ZM129.233 13.3C128.713 13.8333 128.453 14.56 128.453 15.48C128.453 16.4 128.713 17.1267 129.233 17.66C129.753 18.1933 130.473 18.46 131.393 18.46C132.313 18.46 133.033 18.1933 133.553 17.66C134.073 17.1267 134.333 16.4 134.333 15.48C134.333 14.56 134.073 13.8333 133.553 13.3C133.033 12.7667 132.313 12.5 131.393 12.5C130.473 12.5 129.753 12.7667 129.233 13.3ZM137.763 20.5V18.26H140.563V7.9L138.303 8.04V5.8L141.543 5.64C142.063 5.61333 142.456 5.73333 142.723 6C143.003 6.26667 143.143 6.66667 143.143 7.2V18.26H145.923V20.5H137.763Z" fill="#2684FF"/>
<defs>
<linearGradient id="paint0_linear_2178_4429" x1="23.95" y1="34.2375" x2="-8.16815" y2="22.0191" gradientUnits="userSpaceOnUse">
<stop stop-color="#855CBF"/>
<stop offset="0.494792" stop-color="#D444B4"/>
<stop offset="0.963543" stop-color="#FF493A"/>
</linearGradient>
<linearGradient id="paint1_linear_2178_4429" x1="130.65" y1="32.8125" x2="91.0806" y2="-32.8184" gradientUnits="userSpaceOnUse">
<stop stop-color="#855CBF"/>
<stop offset="0.494792" stop-color="#D444B4"/>
<stop offset="0.963543" stop-color="#FF493A"/>
</linearGradient>
</defs>
</svg>
