<svg width="16" height="18" viewBox="0 0 16 18" fill="none" xmlns="http://www.w3.org/2000/svg">
<path d="M12.7929 8.5L10.5216 10.7713C10.4279 10.865 10.375 10.9924 10.375 11.125C10.375 11.133 10.3752 11.141 10.3756 11.149C10.3815 11.2732 10.4336 11.3907 10.5214 11.4786C10.6152 11.5723 10.7424 11.625 10.875 11.625C11.0076 11.625 11.1348 11.5723 11.2286 11.4786L13.8536 8.85355C13.9473 8.75978 14 8.63261 14 8.5C14 8.36739 13.9473 8.24021 13.8536 8.14645L11.2286 5.52151C11.1348 5.42768 11.0076 5.375 10.875 5.375C10.7424 5.375 10.6152 5.42768 10.5214 5.52145C10.4277 5.61521 10.375 5.74239 10.375 5.875C10.375 6.00761 10.4277 6.13479 10.5214 6.22855L12.7929 8.5Z" fill="#FF4747"/>
<path d="M6.5 9H13.5C13.7761 9 14 8.77614 14 8.5C14 8.22386 13.7761 8 13.5 8H6.5C6.22386 8 6 8.22386 6 8.5C6 8.77614 6.22386 9 6.5 9Z" fill="#FF4747"/>
<path d="M3 3.5H6.5C6.77614 3.5 7 3.27614 7 3C7 2.72386 6.77614 2.5 6.5 2.5H3C2.58579 2.5 2.29289 2.79289 2.29289 2.79289C2 3.08579 2 3.5 2 3.5V13.5C2 13.9142 2.29289 14.2071 2.29289 14.2071C2.58579 14.5 3 14.5 3 14.5H6.5C6.77614 14.5 7 14.2761 7 14C7 13.7239 6.77614 13.5 6.5 13.5H3V3.5Z" fill="#FF4747"/>
</svg>
