<svg width="16" height="18" viewBox="0 0 16 18" fill="none" xmlns="http://www.w3.org/2000/svg">
<path fill-rule="evenodd" clip-rule="evenodd" d="M10.5302 2.51101C9.32209 2 8 2 8 2C6.67791 2 5.46975 2.51101 5.46975 2.51101C4.30319 3.00442 3.40381 3.90381 3.40381 3.90381C2.50442 4.80319 2.01101 5.96975 2.01101 5.96975C1.5 7.17791 1.5 8.5 1.5 8.5C1.5 9.82209 2.01101 11.0302 2.01101 11.0302C2.50442 12.1968 3.40381 13.0962 3.40381 13.0962C3.47292 13.1653 3.54362 13.232 3.61524 13.2963C3.64144 13.3255 3.6712 13.3518 3.70408 13.3744C4.54254 14.0968 5.46975 14.489 5.46975 14.489C6.67791 15 8 15 8 15C9.32208 15 10.5302 14.489 10.5302 14.489C11.2699 14.1762 11.9021 13.7001 12.2658 13.3936C12.3187 13.3625 12.3646 13.3225 12.402 13.276C12.527 13.1654 12.5962 13.0962 12.5962 13.0962C13.4956 12.1968 13.989 11.0302 13.989 11.0302C14.5 9.82208 14.5 8.5 14.5 8.5C14.5 7.17791 13.989 5.96975 13.989 5.96975C13.4956 4.80319 12.5962 3.90381 12.5962 3.90381C11.6968 3.00442 10.5302 2.51101 10.5302 2.51101ZM5.85931 13.568C5.37768 13.3643 4.94974 13.0786 4.63779 12.8395C5.16504 12.0463 5.90752 11.5906 5.90752 11.5906C6.87031 10.9996 8 11 8 11C9.12969 11 10.0925 11.5906 10.0925 11.5906C10.6986 11.9626 11.1259 12.4997 11.3592 12.8466C10.7364 13.316 10.1407 13.568 10.1407 13.568C9.1193 14 8 14 8 14C6.8807 14 5.85931 13.568 5.85931 13.568ZM5.3844 10.7383C5.3844 10.7383 5.68577 10.5534 6.16384 10.3687C6.06604 10.2951 5.97038 10.213 5.87868 10.1213C5.87868 10.1213 5 9.24264 5 8C5 8 5 6.75736 5.87868 5.87868C5.87868 5.87868 6.75736 5 8 5C8 5 9.24264 5 10.1213 5.87868C10.1213 5.87868 11 6.75736 11 8C11 8 11 9.24264 10.1213 10.1213C10.1213 10.1213 10.0184 10.2242 9.83332 10.3595C10.0931 10.457 10.3591 10.5809 10.6156 10.7383C10.6156 10.7383 11.4536 11.2527 12.1025 12.1545C12.3591 11.8557 12.7899 11.2982 13.068 10.6407C13.068 10.6407 13.5 9.6193 13.5 8.5C13.5 8.5 13.5 7.3807 13.068 6.35931C13.068 6.35931 12.6506 5.37238 11.8891 4.61091C11.8891 4.61091 11.1276 3.84945 10.1407 3.43201C10.1407 3.43201 9.1193 3 8 3C8 3 6.8807 3 5.85931 3.43201C5.85931 3.43201 4.87238 3.84945 4.11091 4.61091C4.11091 4.61091 3.34945 5.37238 2.93201 6.35931C2.93201 6.35931 2.5 7.3807 2.5 8.5C2.5 8.5 2.5 9.6193 2.93201 10.6407C2.93201 10.6407 3.27305 11.447 3.90091 12.1643C4.20734 11.736 4.70631 11.1545 5.3844 10.7383ZM9.41421 9.41421C8.82843 10 8 10 8 10C7.17157 10 6.58579 9.41421 6.58579 9.41421C6 8.82843 6 8 6 8C6 7.17157 6.58579 6.58579 6.58579 6.58579C7.17157 6 8 6 8 6C8.82843 6 9.41421 6.58579 9.41421 6.58579C10 7.17157 10 8 10 8C10 8.82843 9.41421 9.41421 9.41421 9.41421Z" fill="#1C1C1C"/>
</svg>
