<svg width="16" height="18" viewBox="0 0 16 18" fill="none" xmlns="http://www.w3.org/2000/svg">
<path fill-rule="evenodd" clip-rule="evenodd" d="M7.99976 5C7.99976 5 9.4495 5 10.4746 6.02513C10.4746 6.02513 11.4998 7.05025 11.4998 8.5C11.4998 8.5 11.4998 9.94975 10.4746 10.9749C10.4746 10.9749 9.4495 12 7.99976 12C7.99976 12 6.55001 12 5.52488 10.9749C5.52488 10.9749 4.49976 9.94975 4.49976 8.5C4.49976 8.5 4.49976 7.05025 5.52488 6.02513C5.52488 6.02513 6.55001 5 7.99976 5ZM7.99976 6C7.99976 6 6.96422 6 6.23199 6.73223C6.23199 6.73223 5.49976 7.46447 5.49976 8.5C5.49976 8.5 5.49976 9.53553 6.23199 10.2678C6.23199 10.2678 6.96422 11 7.99976 11C7.99976 11 9.03529 11 9.76752 10.2678C9.76752 10.2678 10.4998 9.53553 10.4998 8.5C10.4998 8.5 10.4998 7.46447 9.76752 6.73223C9.76752 6.73223 9.03529 6 7.99976 6Z" fill="#1C1C1C"/>
<path fill-rule="evenodd" clip-rule="evenodd" d="M12.8684 3.69594L12.8398 5.39481C12.8398 5.39481 12.988 5.62232 13.1112 5.8643L14.5927 6.68803C14.7175 6.75739 14.8067 6.87676 14.8378 7.01607C14.8378 7.01607 15.1687 8.49817 14.8445 9.98176C14.8138 10.1223 14.7241 10.2427 14.5983 10.3124L13.111 11.1362C13.111 11.1362 12.9879 11.3779 12.8398 11.6052L12.8684 13.3041C12.8709 13.4477 12.8114 13.5854 12.7053 13.6821C12.7053 13.6821 11.5842 14.7037 10.1409 15.1696C10.0035 15.2139 9.85376 15.1968 9.73002 15.1225L8.26848 14.2456C8.26848 14.2456 7.9996 14.2576 7.73073 14.2456L6.27527 15.1166C6.15255 15.19 6.00426 15.2074 5.86789 15.1643C5.86789 15.1643 4.41804 14.7062 3.29423 13.6821C3.18809 13.5854 3.12866 13.4477 3.13109 13.3041L3.15972 11.6091C3.15972 11.6091 3.01243 11.3792 2.88864 11.1359L1.4068 10.312C1.28205 10.2427 1.19289 10.1233 1.16178 9.98398C1.16178 9.98398 0.830874 8.50188 1.15504 7.01829C1.18574 6.87779 1.27546 6.75731 1.40127 6.68763L2.88857 5.86389C2.88857 5.86389 3.01163 5.62213 3.15969 5.39481L3.13109 3.69594C3.12867 3.55236 3.1881 3.41467 3.29425 3.31795C3.29425 3.31795 4.41531 2.29638 5.85867 1.83045C5.99599 1.78612 6.14578 1.80329 6.26952 1.87753L7.73106 2.75446C7.73106 2.75446 7.99993 2.74242 8.2688 2.75447L9.72427 1.88348C9.84699 1.81004 9.99528 1.79267 10.1316 1.83575C10.1316 1.83575 11.5815 2.29381 12.7053 3.31797C12.8114 3.41469 12.8709 3.55237 12.8684 3.69594ZM11.8373 5.53536L11.8647 3.9103C11.8647 3.9103 11.0482 3.21875 10.0402 2.85977L8.65027 3.69157C8.56225 3.74424 8.46016 3.76857 8.35784 3.76125C8.35784 3.76125 7.99977 3.73564 7.64169 3.76125C7.53918 3.76858 7.4369 3.74415 7.34877 3.69127L5.95432 2.8546C5.95432 2.8546 4.94992 3.21924 4.13484 3.91024L4.1622 5.53536C4.16397 5.64063 4.13247 5.74377 4.07218 5.83009C4.07218 5.83009 3.87064 6.11863 3.72123 6.43729C3.67653 6.53262 3.60288 6.61141 3.51077 6.66242L2.08842 7.45018C2.08842 7.45018 1.89888 8.50036 2.09352 9.54966L3.51148 10.338C3.60289 10.3888 3.67606 10.4671 3.7207 10.5616C3.7207 10.5616 3.87335 10.8851 4.07512 11.1805C4.13352 11.266 4.16395 11.3675 4.1622 11.471L4.13485 13.0898C4.13485 13.0898 4.95131 13.7813 5.95929 14.1403L7.34927 13.3085C7.43729 13.2558 7.53938 13.2315 7.64169 13.2388C7.64169 13.2388 7.99977 13.2644 8.35784 13.2388C8.46036 13.2315 8.56264 13.2559 8.65077 13.3088L10.0452 14.1455C10.0452 14.1455 11.0496 13.7808 11.8647 13.0898L11.8373 11.4647C11.8356 11.3594 11.8671 11.2563 11.9274 11.17C11.9274 11.17 12.1289 10.8814 12.2783 10.5628C12.323 10.4674 12.3967 10.3886 12.4888 10.3376L13.9111 9.54987C13.9111 9.54987 14.1007 8.49969 13.906 7.45039L12.4881 6.66202C12.3963 6.611 12.3229 6.53237 12.2783 6.43729C12.2783 6.43729 12.1289 6.11863 11.9274 5.83009C11.8671 5.74377 11.8356 5.64063 11.8373 5.53536Z" fill="#1C1C1C"/>
</svg>
