<svg width="16" height="18" viewBox="0 0 16 18" fill="none" xmlns="http://www.w3.org/2000/svg">
<path fill-rule="evenodd" clip-rule="evenodd" d="M1 7.25C1 7.25 1 6.83579 1.29289 6.54289C1.29289 6.54289 1.58579 6.25 2 6.25H4.5C4.5 6.25 4.91421 6.25 5.20711 6.54289C5.20711 6.54289 5.5 6.83579 5.5 7.25V9.75C5.5 9.75 5.5 10.1642 5.20711 10.4571C5.20711 10.4571 4.91421 10.75 4.5 10.75H2C2 10.75 1.58579 10.75 1.29289 10.4571C1.29289 10.4571 1 10.1642 1 9.75V7.25ZM2 7.25V9.75H4.5V7.25H2Z" fill="#1C1C1C"/>
<path fill-rule="evenodd" clip-rule="evenodd" d="M9.5 3.5C9.5 3.5 9.5 3.08579 9.79289 2.79289C9.79289 2.79289 10.0858 2.5 10.5 2.5H13.5C13.5 2.5 13.9142 2.5 14.2071 2.79289C14.2071 2.79289 14.5 3.08579 14.5 3.5V6.5C14.5 6.5 14.5 6.91421 14.2071 7.20711C14.2071 7.20711 13.9142 7.5 13.5 7.5H10.5C10.5 7.5 10.0858 7.5 9.79289 7.20711C9.79289 7.20711 9.5 6.91421 9.5 6.5V3.5ZM10.5 3.5V6.5L13.5 6.5L13.5 3.5H10.5Z" fill="#1C1C1C"/>
<path fill-rule="evenodd" clip-rule="evenodd" d="M9.5 10.5C9.5 10.5 9.5 10.0858 9.79289 9.79289C9.79289 9.79289 10.0858 9.5 10.5 9.5H13.5C13.5 9.5 13.9142 9.5 14.2071 9.79289C14.2071 9.79289 14.5 10.0858 14.5 10.5V13.5C14.5 13.5 14.5 13.9142 14.2071 14.2071C14.2071 14.2071 13.9142 14.5 13.5 14.5H10.5C10.5 14.5 10.0858 14.5 9.79289 14.2071C9.79289 14.2071 9.5 13.9142 9.5 13.5V10.5ZM10.5 10.5V13.5L13.5 13.5L13.5 10.5H10.5Z" fill="#1C1C1C"/>
<path d="M5 9H7.5C7.77614 9 8 8.77614 8 8.5C8 8.22386 7.77614 8 7.5 8H5C4.72386 8 4.5 8.22386 4.5 8.5C4.5 8.77614 4.72386 9 5 9Z" fill="#1C1C1C"/>
<path d="M8.61537 5.57485C8.79916 5.49918 9 5.50002 9 5.50002H10C10.2761 5.50002 10.5 5.27616 10.5 5.00002C10.5 4.72388 10.2761 4.50002 10 4.50002H9C8.60335 4.49835 8.23463 4.65017 8.23463 4.65017C7.86591 4.802 7.58395 5.08396 7.58395 5.08396C7.30198 5.36592 7.15016 5.73464 7.15016 5.73464C6.99834 6.10336 7.00001 6.50211 7.00001 6.50211L7 10.5C6.99834 10.8967 7.15016 11.2654 7.15016 11.2654C7.30198 11.6341 7.58395 11.9161 7.58395 11.9161C7.86591 12.198 8.23463 12.3499 8.23463 12.3499C8.60335 12.5017 9.0021 12.5 9.0021 12.5L10 12.5C10.2761 12.5 10.5 12.2762 10.5 12C10.5 11.7239 10.2761 11.5 10 11.5L8.99791 11.5C8.79916 11.5009 8.61537 11.4252 8.61537 11.4252C8.43159 11.3495 8.29105 11.209 8.29105 11.209C8.15051 11.0684 8.07484 10.8846 8.07484 10.8846C7.99917 10.7009 8 10.5 8 10.5L8 6.49792C7.99917 6.29917 8.07484 6.11539 8.07484 6.11539C8.15051 5.93161 8.29105 5.79107 8.29105 5.79107C8.43159 5.65053 8.61537 5.57485 8.61537 5.57485Z" fill="#1C1C1C"/>
</svg>
