<svg width="42" height="42" viewBox="0 0 42 42" fill="none" xmlns="http://www.w3.org/2000/svg">
<rect width="42" height="42" rx="21" fill="black" fill-opacity="0.05"/>
<path d="M24.0732 16.2299C24.0732 16.4096 24.061 16.5892 24.0385 16.7668C24.0487 16.6953 24.0589 16.6218 24.0671 16.5504C24.0181 16.9056 23.9242 17.2505 23.7875 17.5812C23.814 17.5158 23.8426 17.4505 23.8691 17.3852C23.7324 17.7077 23.5568 18.0098 23.3425 18.2874L23.4711 18.1221C23.2588 18.3956 23.0119 18.6425 22.7383 18.8548L22.9037 18.7262C22.6261 18.9385 22.324 19.1161 22.0015 19.2528C22.0668 19.2263 22.1321 19.1977 22.1974 19.1712C21.8668 19.3079 21.5218 19.4018 21.1667 19.4508C21.2381 19.4406 21.3116 19.4304 21.383 19.4222C21.0258 19.4692 20.6666 19.4692 20.3094 19.4222C20.3808 19.4325 20.4543 19.4427 20.5258 19.4508C20.1706 19.4018 19.8257 19.3079 19.495 19.1712C19.5603 19.1977 19.6256 19.2263 19.6909 19.2528C19.3684 19.1161 19.0664 18.9405 18.7888 18.7262L18.9541 18.8548C18.6806 18.6425 18.4336 18.3956 18.2213 18.1221L18.3499 18.2874C18.1376 18.0098 17.9601 17.7077 17.8233 17.3852C17.8498 17.4505 17.8784 17.5158 17.905 17.5812C17.7682 17.2505 17.6743 16.9056 17.6253 16.5504C17.6355 16.6218 17.6457 16.6953 17.6539 16.7668C17.6069 16.4096 17.6069 16.0503 17.6539 15.6931C17.6437 15.7646 17.6335 15.8381 17.6253 15.9095C17.6743 15.5543 17.7682 15.2094 17.905 14.8787C17.8784 14.944 17.8498 15.0094 17.8233 15.0747C17.9601 14.7522 18.1356 14.4501 18.3499 14.1725L18.2213 14.3378C18.4336 14.0643 18.6806 13.8174 18.9541 13.6051L18.7888 13.7337C19.0664 13.5214 19.3684 13.3438 19.6909 13.2071C19.6256 13.2336 19.5603 13.2622 19.495 13.2887C19.8257 13.152 20.1706 13.0581 20.5258 13.0091C20.4543 13.0193 20.3808 13.0295 20.3094 13.0376C20.6666 12.9907 21.0258 12.9907 21.383 13.0376C21.3116 13.0274 21.2381 13.0172 21.1667 13.0091C21.5218 13.0581 21.8668 13.152 22.1974 13.2887C22.1321 13.2622 22.0668 13.2336 22.0015 13.2071C22.324 13.3438 22.6261 13.5194 22.9037 13.7337L22.7383 13.6051C23.0119 13.8174 23.2588 14.0643 23.4711 14.3378L23.3425 14.1725C23.5548 14.4501 23.7324 14.7522 23.8691 15.0747C23.8426 15.0094 23.814 14.944 23.7875 14.8787C23.9242 15.2094 24.0181 15.5543 24.0671 15.9095C24.0569 15.8381 24.0467 15.7646 24.0385 15.6931C24.061 15.8707 24.0712 16.0503 24.0732 16.2299C24.0753 16.6565 24.4468 17.0668 24.8897 17.0464C25.3306 17.026 25.7082 16.6872 25.7061 16.2299C25.7021 15.2523 25.4081 14.2521 24.8325 13.4561C24.6774 13.2418 24.5121 13.0315 24.3284 12.8417C24.1426 12.6498 23.9385 12.4845 23.7262 12.3233C23.3405 12.0293 22.9098 11.813 22.4526 11.6456C20.6094 10.97 18.3867 11.5721 17.1395 13.0907C16.9681 13.2989 16.8048 13.5153 16.666 13.748C16.5272 13.9786 16.419 14.2235 16.319 14.4725C16.1312 14.9338 16.0353 15.4237 15.9965 15.9197C15.921 16.8913 16.1741 17.9057 16.6803 18.7385C17.1681 19.5427 17.905 20.2326 18.7663 20.6224C19.0194 20.7367 19.2786 20.8429 19.5481 20.9184C19.8154 20.9919 20.0869 21.0327 20.3625 21.0653C20.8646 21.1245 21.3769 21.0837 21.8729 20.9837C23.7569 20.6 25.3347 18.9773 25.6265 17.0729C25.6694 16.7953 25.7021 16.5177 25.7021 16.2361C25.7041 15.8095 25.3244 15.3992 24.8856 15.4196C24.4447 15.4339 24.0732 15.7727 24.0732 16.2299ZM26.7818 28.993H16.3088C15.8455 28.993 15.3821 28.9971 14.9188 28.993C14.8678 28.993 14.8167 28.9889 14.7677 28.9828C14.8392 28.993 14.9127 29.0032 14.9841 29.0114C14.9025 28.9991 14.8249 28.9767 14.7494 28.9461C14.8147 28.9726 14.88 29.0012 14.9453 29.0277C14.8637 28.993 14.7882 28.9481 14.7167 28.893L14.882 29.0216C14.8208 28.9706 14.7637 28.9155 14.7147 28.8542L14.8433 29.0196C14.7882 28.9481 14.7453 28.8726 14.7085 28.791C14.7351 28.8563 14.7637 28.9216 14.7902 28.9869C14.7596 28.9114 14.7392 28.8318 14.7249 28.7522C14.7351 28.8236 14.7453 28.8971 14.7535 28.9685C14.7208 28.7216 14.7432 28.4603 14.7432 28.2113V27.3377C14.7432 27.1193 14.7555 26.9029 14.7841 26.6866C14.7739 26.758 14.7637 26.8315 14.7555 26.9029C14.8126 26.4845 14.9229 26.0742 15.0882 25.6844C15.0617 25.7497 15.0331 25.815 15.0066 25.8803C15.1658 25.5088 15.3699 25.1598 15.6169 24.8394L15.4883 25.0047C15.7352 24.6883 16.019 24.4026 16.3374 24.1556L16.172 24.2842C16.4925 24.0372 16.8415 23.8331 17.213 23.6739C17.1477 23.7004 17.0824 23.729 17.0171 23.7555C17.4069 23.5922 17.8151 23.48 18.2356 23.4228C18.1642 23.433 18.0907 23.4432 18.0193 23.4514C18.3213 23.4126 18.6214 23.4106 18.9255 23.4106H22.6608C22.9976 23.4106 23.3323 23.4085 23.6691 23.4514C23.5977 23.4412 23.5242 23.431 23.4527 23.4228C23.8712 23.48 24.2814 23.5902 24.6713 23.7555C24.606 23.729 24.5407 23.7004 24.4753 23.6739C24.8468 23.8331 25.1959 24.0372 25.5163 24.2842L25.351 24.1556C25.6674 24.4026 25.9531 24.6863 26.2001 25.0047L26.0715 24.8394C26.3185 25.1598 26.5226 25.5088 26.6818 25.8803C26.6553 25.815 26.6267 25.7497 26.6001 25.6844C26.7634 26.0742 26.8757 26.4825 26.9329 26.9029C26.9226 26.8315 26.9124 26.758 26.9043 26.6866C26.9431 26.9948 26.9451 27.3009 26.9451 27.6112V28.6215C26.9451 28.7379 26.9492 28.8542 26.9349 28.9685C26.9451 28.8971 26.9553 28.8236 26.9635 28.7522C26.9512 28.8338 26.9288 28.9114 26.8982 28.9869C26.9247 28.9216 26.9533 28.8563 26.9798 28.791C26.9451 28.8726 26.9002 28.9481 26.8451 29.0196L26.9737 28.8542C26.9226 28.9155 26.8675 28.9726 26.8063 29.0216L26.9716 28.893C26.9002 28.9481 26.8247 28.991 26.743 29.0277C26.8083 29.0012 26.8737 28.9726 26.939 28.9461C26.8635 28.9767 26.7838 28.9971 26.7042 29.0114C26.7757 29.0012 26.8492 28.991 26.9206 28.9828C26.8757 28.9889 26.8288 28.991 26.7818 28.993C26.5716 28.9951 26.3552 29.0828 26.2042 29.2318C26.0633 29.3727 25.9552 29.6054 25.9654 29.8095C25.9858 30.2463 26.3246 30.632 26.7818 30.6259C27.5758 30.6137 28.2739 30.0952 28.5066 29.3339C28.5984 29.0318 28.578 28.7073 28.578 28.397C28.578 27.6867 28.6005 26.9825 28.478 26.2783C28.2984 25.2476 27.7799 24.2781 27.0696 23.5167C26.3593 22.7554 25.404 22.1961 24.3937 21.9471C23.814 21.8042 23.2303 21.7818 22.6383 21.7818H19.0174C18.4112 21.7818 17.809 21.8103 17.2191 21.9675C16.2169 22.2329 15.2739 22.7982 14.5779 23.5657C13.8758 24.3393 13.3675 25.3109 13.2022 26.3477C13.092 27.0438 13.1144 27.7418 13.1144 28.444C13.1144 28.7665 13.0961 29.1032 13.2124 29.4114C13.3634 29.8074 13.6043 30.1197 13.9574 30.3544C14.233 30.5361 14.582 30.6239 14.9086 30.628C15.0678 30.63 15.227 30.628 15.3862 30.628H26.7838C27.2104 30.628 27.6207 30.2524 27.6003 29.8115C27.5799 29.3665 27.2411 28.993 26.7818 28.993Z" fill="url(#paint0_linear_2279_22544)"/>
<defs>
<linearGradient id="paint0_linear_2279_22544" x1="26.2598" y1="34.7212" x2="6.99601" y2="28.8354" gradientUnits="userSpaceOnUse">
<stop stop-color="#855CBF"/>
<stop offset="0.494792" stop-color="#D444B4"/>
<stop offset="0.963543" stop-color="#FF493A"/>
</linearGradient>
</defs>
</svg>
