<svg width="42" height="42" viewBox="0 0 42 42" fill="none" xmlns="http://www.w3.org/2000/svg">
<rect width="42" height="42" rx="21" fill="#A8C5DA"/>
<path d="M29.4959 21.2868V21.4993L29.6963 21.5698C30.3643 21.8048 30.9276 22.2687 31.2864 22.8792C31.6452 23.4897 31.7764 24.2075 31.6567 24.9054C31.5369 25.6033 31.1741 26.2364 30.6323 26.6924C30.0906 27.1485 29.4049 27.3981 28.6968 27.397H28.6964H13.3032L13.3028 27.397C12.5946 27.3981 11.909 27.1485 11.3672 26.6924C10.8255 26.2364 10.4626 25.6033 10.3429 24.9054C10.2232 24.2075 10.3544 23.4897 10.7132 22.8792C11.072 22.2687 11.6352 21.8048 12.3033 21.5698L12.503 21.4996L12.5037 21.2879C12.5112 19.0612 13.3695 16.9216 14.903 15.3072C16.435 13.6942 18.5252 12.7272 20.7462 12.6037C21.6776 12.5915 22.605 12.7279 23.4935 13.0078L23.5375 13.0217H23.5836H23.5935C24.8446 13.4106 25.9865 14.0897 26.9258 15.0037C27.7401 15.7963 28.3871 16.7442 28.8285 17.7913C29.27 18.8383 29.4969 19.9633 29.4959 21.0997V21.0999V21.2868ZM12.3136 23.4089L12.5257 23.621L12.3136 23.4089C12.0511 23.6713 11.9037 24.0273 11.9037 24.3985C11.9037 24.7696 12.0511 25.1256 12.3136 25.3881L12.5257 25.1759L12.3136 25.3881C12.5761 25.6505 12.932 25.798 13.3032 25.798H28.6964C29.0675 25.798 29.4235 25.6505 29.686 25.3881C29.9484 25.1256 30.0959 24.7696 30.0959 24.3985C30.0959 24.0273 29.9484 23.6713 29.686 23.4089C29.4235 23.1464 29.0675 22.999 28.6964 22.999H26.4973C26.2853 22.999 26.0819 22.9147 25.932 22.7648C25.7821 22.6148 25.6978 22.4115 25.6978 22.1994C25.6978 21.9874 25.7821 21.784 25.932 21.6341C26.0819 21.4842 26.2853 21.3999 26.4973 21.3999H27.5969H27.8966L27.8969 21.1002C27.8977 20.1764 27.713 19.2618 27.3536 18.4107C26.9942 17.5596 26.4675 16.7894 25.8047 16.1458L25.8048 16.1458L25.7993 16.1407C25.3872 15.76 24.9342 15.426 24.4486 15.1448L23.9983 14.8841V15.4045V18.9009C23.9983 19.113 23.9141 19.3163 23.7641 19.4663C23.6142 19.6162 23.4109 19.7004 23.1988 19.7004C22.9868 19.7004 22.7834 19.6162 22.6335 19.4663C22.4835 19.3163 22.3993 19.113 22.3993 18.9009V14.6128V14.3651L22.156 14.3182C21.7758 14.245 21.3897 14.2064 21.0025 14.2029V14.2029H20.9998H20.8019H20.7939L20.786 14.2033C20.4726 14.2199 20.1604 14.2542 19.8508 14.3059L19.6003 14.3478V14.6018V18.9009C19.6003 19.113 19.516 19.3163 19.3661 19.4663C19.2162 19.6162 19.0128 19.7004 18.8008 19.7004C18.5887 19.7004 18.3854 19.6162 18.2354 19.4663C18.0855 19.3163 18.0013 19.113 18.0013 18.9009V15.4375V14.8954L17.5419 15.1832C16.5335 15.8152 15.6937 16.6827 15.0946 17.711C14.4956 18.7393 14.1553 19.8978 14.103 21.0868L14.0892 21.3999H14.4027H15.5022C15.7143 21.3999 15.9176 21.4842 16.0676 21.6341C16.2175 21.784 16.3017 21.9874 16.3017 22.1994C16.3017 22.4115 16.2175 22.6148 16.0676 22.7648C15.9176 22.9147 15.7143 22.999 15.5022 22.999H13.3032C12.932 22.999 12.5761 23.1464 12.3136 23.4089Z" fill="#1C1C1C" stroke="#A8C5DA" stroke-width="0.6"/>
</svg>
