<svg width="42" height="42" viewBox="0 0 42 42" fill="none" xmlns="http://www.w3.org/2000/svg">
<rect width="42" height="42" rx="21" fill="#FFE999"/>
<path d="M23.8438 27.5H18.1563C17.4843 27.5 16.9375 26.9532 16.9375 26.2812V24.3938C16.9377 24.3126 16.9135 24.2333 16.868 24.166C16.8225 24.0988 16.7578 24.0468 16.6824 24.0168L15.1736 23.4131C14.4936 23.1439 13.9106 22.676 13.5005 22.0705C13.0905 21.4649 12.8725 20.7498 12.875 20.0185V16.5312C12.875 15.8593 13.4218 15.3125 14.0938 15.3125H27.9063C28.5782 15.3125 29.125 15.8593 29.125 16.5312V20.0185C29.1275 20.7498 28.9095 21.4649 28.4995 22.0705C28.0895 22.676 27.5064 23.1439 26.8265 23.4131L25.3176 24.0168C25.2423 24.0469 25.1777 24.0989 25.1322 24.1661C25.0867 24.2333 25.0624 24.3127 25.0625 24.3938V26.2812C25.0625 26.9532 24.5157 27.5 23.8438 27.5ZM14.0938 16.125C13.986 16.125 13.8827 16.1678 13.8065 16.244C13.7303 16.3202 13.6875 16.4235 13.6875 16.5312V20.0185C13.6875 21.1877 14.3895 22.2244 15.475 22.6591L16.9838 23.2628C17.4494 23.4489 17.75 23.8925 17.75 24.3938V26.2812C17.75 26.389 17.7928 26.4923 17.869 26.5685C17.9452 26.6447 18.0485 26.6875 18.1563 26.6875H23.8438C23.9515 26.6875 24.0548 26.6447 24.131 26.5685C24.2072 26.4923 24.25 26.389 24.25 26.2812V24.3938C24.25 23.8925 24.5506 23.4481 25.0154 23.262L26.5242 22.6583C27.053 22.4488 27.5064 22.0848 27.8253 21.6137C28.1441 21.1427 28.3137 20.5865 28.3117 20.0177V16.5312C28.3117 16.4235 28.2689 16.3202 28.1927 16.244C28.1165 16.1678 28.0132 16.125 27.9055 16.125H14.0938Z" fill="#1C1C1C"/>
<path d="M19.706 25.3257C19.6399 25.3258 19.5749 25.3098 19.5165 25.2791C19.4581 25.2484 19.408 25.2039 19.3706 25.1495C19.3333 25.0951 19.3097 25.0324 19.302 24.9668C19.2944 24.9013 19.3028 24.8348 19.3265 24.7732L20.2 22.4974L19.0625 22.0611C18.9691 22.0254 18.8922 21.9565 18.8465 21.8676C18.8008 21.7787 18.7894 21.676 18.8146 21.5793L19.7458 18.0206C19.7602 17.9653 19.7862 17.9137 19.822 17.8692C19.8578 17.8246 19.9025 17.7881 19.9534 17.762C20.0042 17.736 20.06 17.7209 20.117 17.7179C20.1741 17.7148 20.2311 17.7238 20.2845 17.7443L22.9397 18.7632C22.9945 18.7847 23.044 18.8177 23.0849 18.8601C23.1257 18.9025 23.1569 18.9531 23.1763 19.0087C23.1958 19.0642 23.203 19.1233 23.1975 19.1819C23.192 19.2405 23.1739 19.2972 23.1445 19.3482L22.1345 21.065L22.8251 21.3299C22.8869 21.3539 22.9419 21.3927 22.9854 21.4428C23.0288 21.4929 23.0594 21.5528 23.0744 21.6174C23.0895 21.682 23.0886 21.7493 23.0717 21.8135C23.0549 21.8776 23.0227 21.9367 22.9779 21.9856L20.005 25.1966C19.9665 25.2372 19.9201 25.2696 19.8687 25.2918C19.8173 25.314 19.7619 25.3256 19.706 25.3257ZM19.693 21.4331L20.8703 21.8848C20.9201 21.9039 20.9657 21.9326 21.0044 21.9693C21.0431 22.0061 21.0742 22.0501 21.0958 22.0988C21.1175 22.1476 21.1293 22.2002 21.1306 22.2535C21.1319 22.3068 21.1227 22.3599 21.1035 22.4097L20.8402 23.0954L21.9728 21.8726L21.3951 21.6508C21.3403 21.6293 21.2908 21.5963 21.25 21.5539C21.2092 21.5115 21.1779 21.4609 21.1585 21.4053C21.1391 21.3498 21.1318 21.2907 21.1373 21.2321C21.1429 21.1735 21.1609 21.1168 21.1904 21.0658L22.2003 19.349L20.4169 18.6649L19.693 21.4331Z" fill="#1C1C1C"/>
<path d="M22.625 29.125H19.375C19.2673 29.125 19.1639 29.0822 19.0877 29.006C19.0116 28.9298 18.9688 28.8265 18.9688 28.7188V27.0938C18.9688 26.986 19.0116 26.8827 19.0877 26.8065C19.1639 26.7303 19.2673 26.6875 19.375 26.6875H22.625C22.7327 26.6875 22.8361 26.7303 22.9123 26.8065C22.9884 26.8827 23.0312 26.986 23.0312 27.0938V28.7188C23.0312 28.8265 22.9884 28.9298 22.9123 29.006C22.8361 29.0822 22.7327 29.125 22.625 29.125ZM19.7812 28.3125H22.2188V27.5H19.7812V28.3125Z" fill="#1C1C1C"/>
<path d="M21.8125 31.5625H20.1875C20.0798 31.5625 19.9764 31.5197 19.9002 31.4435C19.8241 31.3673 19.7812 31.264 19.7812 31.1562V28.7188C19.7812 28.611 19.8241 28.5077 19.9002 28.4315C19.9764 28.3553 20.0798 28.3125 20.1875 28.3125H21.8125C21.9202 28.3125 22.0236 28.3553 22.0998 28.4315C22.1759 28.5077 22.2188 28.611 22.2188 28.7188V31.1562C22.2188 31.264 22.1759 31.3673 22.0998 31.4435C22.0236 31.5197 21.9202 31.5625 21.8125 31.5625ZM20.5938 30.75H21.4062V29.125H20.5938V30.75ZM18.1562 16.125H16.5312C16.4235 16.125 16.3202 16.0822 16.244 16.006C16.1678 15.9298 16.125 15.8265 16.125 15.7188V11.6562C16.125 10.9843 16.6718 10.4375 17.3438 10.4375C18.0157 10.4375 18.5625 10.9843 18.5625 11.6562V15.7188C18.5625 15.8265 18.5197 15.9298 18.4435 16.006C18.3673 16.0822 18.264 16.125 18.1562 16.125ZM16.9375 15.3125H17.75V11.6562C17.75 11.5485 17.7072 11.4452 17.631 11.369C17.5548 11.2928 17.4515 11.25 17.3438 11.25C17.236 11.25 17.1327 11.2928 17.0565 11.369C16.9803 11.4452 16.9375 11.5485 16.9375 11.6562V15.3125ZM25.4688 16.125H23.8438C23.736 16.125 23.6327 16.0822 23.5565 16.006C23.4803 15.9298 23.4375 15.8265 23.4375 15.7188V11.6562C23.4375 10.9843 23.9843 10.4375 24.6562 10.4375C25.3282 10.4375 25.875 10.9843 25.875 11.6562V15.7188C25.875 15.8265 25.8322 15.9298 25.756 16.006C25.6798 16.0822 25.5765 16.125 25.4688 16.125ZM24.25 15.3125H25.0625V11.6562C25.0625 11.5485 25.0197 11.4452 24.9435 11.369C24.8673 11.2928 24.764 11.25 24.6562 11.25C24.5485 11.25 24.4452 11.2928 24.369 11.369C24.2928 11.4452 24.25 11.5485 24.25 11.6562V15.3125Z" fill="#1C1C1C"/>
</svg>
