<svg width="20" height="20" viewBox="0 0 20 20" fill="none" xmlns="http://www.w3.org/2000/svg">
<path fill-rule="evenodd" clip-rule="evenodd" d="M15.9141 7.15626L17.9375 8.28122C18.1902 9.41289 18.1928 10.586 17.9453 11.7187L15.9141 12.8437C15.7746 13.1411 15.61 13.426 15.422 13.6953L15.461 16.0156C14.6035 16.7971 13.5885 17.3858 12.4844 17.7422L10.4922 16.5469C10.1646 16.5703 9.83559 16.5703 9.50783 16.5469L7.52342 17.7343C6.41594 17.3845 5.39757 16.798 4.53911 16.0156L4.57817 13.7031C4.39171 13.4301 4.22706 13.1427 4.08592 12.8437L2.06261 11.7187C1.81389 10.5867 1.81114 9.41441 2.05467 8.28122L4.08592 7.15626C4.22539 6.85887 4.39003 6.57399 4.57817 6.30467L4.53911 3.98434C5.39665 3.20294 6.41151 2.61418 7.51564 2.25781L9.50783 3.45311C9.83559 3.42969 10.1646 3.42969 10.4922 3.45311L12.4766 2.26559C13.5842 2.61555 14.6024 3.20203 15.461 3.98434L15.422 6.30467C15.61 6.57399 15.7746 6.85887 15.9141 7.15626ZM7.91664 13.118C8.5334 13.5301 9.25835 13.75 10.0001 13.75C10.9946 13.75 11.9485 13.3549 12.6517 12.6516C13.3549 11.9484 13.7501 10.9945 13.7501 9.99997C13.7501 9.25832 13.53 8.53329 13.1181 7.91661C12.7059 7.29993 12.1203 6.81927 11.4352 6.53546C10.7499 6.25165 9.9958 6.17734 9.26842 6.32207C8.54103 6.46672 7.87285 6.82393 7.3484 7.34837C6.82396 7.87282 6.46675 8.541 6.3221 9.26839C6.17744 9.99585 6.2516 10.7499 6.53541 11.4351C6.81938 12.1203 7.30003 12.706 7.91664 13.118Z" fill="black" fill-opacity="0.1"/>
<path fill-rule="evenodd" clip-rule="evenodd" d="M10 5.625C10 5.625 11.8122 5.625 13.0936 6.90641C13.0936 6.90641 14.375 8.18782 14.375 10C14.375 10 14.375 11.8122 13.0936 13.0936C13.0936 13.0936 11.8122 14.375 10 14.375C10 14.375 8.18782 14.375 6.90641 13.0936C6.90641 13.0936 5.625 11.8122 5.625 10C5.625 10 5.625 8.18782 6.90641 6.90641C6.90641 6.90641 8.18782 5.625 10 5.625ZM10 6.875C10 6.875 8.70558 6.875 7.79029 7.79029C7.79029 7.79029 6.875 8.70558 6.875 10C6.875 10 6.875 11.2944 7.79029 12.2097C7.79029 12.2097 8.70558 13.125 10 13.125C10 13.125 11.2944 13.125 12.2097 12.2097C12.2097 12.2097 13.125 11.2944 13.125 10C13.125 10 13.125 8.70558 12.2097 7.79029C12.2097 7.79029 11.2944 6.875 10 6.875Z" fill="#1C1C1C"/>
<path fill-rule="evenodd" clip-rule="evenodd" d="M16.0858 3.9949L16.05 6.11849C16.05 6.11849 16.2353 6.40287 16.3892 6.70535L18.2412 7.735C18.3971 7.8217 18.5086 7.97092 18.5474 8.14506C18.5474 8.14506 18.9611 9.99768 18.5559 11.8522C18.5175 12.0278 18.4053 12.1784 18.2481 12.2655L16.3889 13.2952C16.3889 13.2952 16.2351 13.5974 16.05 13.8815L16.0858 16.0051C16.0888 16.1846 16.0145 16.3567 15.8819 16.4776C15.8819 16.4776 14.4805 17.7546 12.6763 18.337C12.5047 18.3924 12.3174 18.3709 12.1628 18.2781L10.3358 17.182C10.3358 17.182 9.99975 17.197 9.66366 17.1819L7.84433 18.2707C7.69093 18.3625 7.50557 18.3842 7.3351 18.3303C7.3351 18.3303 5.52279 17.7578 4.11803 16.4776C3.98535 16.3567 3.91107 16.1845 3.9141 16.0051L3.94989 13.8863C3.94989 13.8863 3.76578 13.599 3.61104 13.2948L1.75875 12.265C1.60215 12.1779 1.49045 12.0279 1.45201 11.8529C1.45201 11.8529 1.04545 10.0023 1.44359 8.14992C1.48153 7.97343 1.59391 7.82197 1.75183 7.73451L3.61095 6.70484C3.61095 6.70484 3.76477 6.40263 3.94985 6.11849L3.9141 3.9949C3.91108 3.81542 3.98537 3.64331 4.11805 3.52241C4.11805 3.52241 5.51937 2.24545 7.32358 1.66304C7.49523 1.60762 7.68246 1.62908 7.83714 1.72188L9.66407 2.81804C9.66407 2.81804 10.0002 2.803 10.3362 2.81806L12.1556 1.72932C12.309 1.63752 12.4943 1.61581 12.6648 1.66966C12.6648 1.66966 14.4771 2.24223 15.8819 3.52243C16.0145 3.64333 16.0888 3.81543 16.0858 3.9949ZM14.7969 6.29417L14.8311 4.26285C14.8311 4.26285 13.8105 3.39841 12.5505 2.94969L10.8131 3.98943C10.7031 4.05527 10.5754 4.08568 10.4475 4.07653C10.4475 4.07653 9.99995 4.04452 9.55235 4.07653C9.42422 4.0857 9.29636 4.05516 9.1862 3.98906L7.44314 2.94322C7.44314 2.94322 6.18765 3.39902 5.16879 4.26277L5.20299 6.29417C5.2052 6.42576 5.16582 6.55469 5.09046 6.66258C5.09046 6.66258 4.83854 7.02325 4.65177 7.42158C4.5959 7.54074 4.50383 7.63923 4.3887 7.703L2.61184 8.68711C2.61184 8.68711 2.3789 10.0004 2.61821 11.3126L4.38959 12.2975C4.50386 12.361 4.59532 12.4588 4.65112 12.577C4.65112 12.577 4.84193 12.9814 5.09415 13.3506C5.16714 13.4574 5.20517 13.5843 5.20299 13.7137L5.16881 15.7372C5.16881 15.7372 6.18937 16.6016 7.44936 17.0503L9.18682 16.0106C9.29685 15.9447 9.42446 15.9143 9.55236 15.9235C9.55236 15.9235 9.99995 15.9555 10.4475 15.9235C10.5757 15.9143 10.7035 15.9448 10.8137 16.0109L12.5568 17.0568C12.5568 17.0568 13.8123 16.601 14.8311 15.7372L14.7969 13.7058C14.7947 13.5742 14.8341 13.4453 14.9094 13.3374C14.9094 13.3374 15.1614 12.9768 15.3481 12.5784C15.404 12.4593 15.4961 12.3608 15.6112 12.297L17.3891 11.3123C17.3891 11.3123 17.6261 9.99958 17.3828 8.68796L15.6103 7.7025C15.4956 7.63872 15.4039 7.54043 15.3481 7.42158C15.3481 7.42158 15.1614 7.02325 14.9094 6.66258C14.8341 6.55469 14.7947 6.42576 14.7969 6.29417Z" fill="#1C1C1C"/>
</svg>
