<svg width="20" height="20" viewBox="0 0 20 20" fill="none" xmlns="http://www.w3.org/2000/svg">
<path fill-rule="evenodd" clip-rule="evenodd" d="M2.5 16.25V4.375C2.5 4.02982 2.77982 3.75 3.125 3.75H16.875C17.2202 3.75 17.5 4.02982 17.5 4.375V13.75C17.5 13.75 17.5 14.2678 17.1339 14.6339C17.1339 14.6339 16.7678 15 16.25 15H13.125C13.125 15 12.6072 15 12.2411 14.6339C12.2411 14.6339 11.875 14.2678 11.875 13.75V12.5H8.125V16.25C8.125 16.25 8.125 16.7678 7.75888 17.1339C7.75888 17.1339 7.39277 17.5 6.875 17.5H3.75C3.75 17.5 3.23223 17.5 2.86612 17.1339C2.86612 17.1339 2.5 16.7678 2.5 16.25ZM3.75 16.25H6.875V11.875C6.875 11.5298 7.15482 11.25 7.5 11.25H12.5C12.8452 11.25 13.125 11.5298 13.125 11.875V13.75H16.25V5H3.75V16.25Z" fill="#1C1C1C"/>
<path d="M7.5 8.75H3.125C2.77982 8.75 2.5 9.02982 2.5 9.375C2.5 9.72018 2.77982 10 3.125 10H7.5C7.84518 10 8.125 9.72018 8.125 9.375C8.125 9.02982 7.84518 8.75 7.5 8.75Z" fill="#1C1C1C"/>
<path d="M6.875 4.375V11.875C6.875 12.2202 7.15482 12.5 7.5 12.5C7.84518 12.5 8.125 12.2202 8.125 11.875V4.375C8.125 4.02982 7.84518 3.75 7.5 3.75C7.15482 3.75 6.875 4.02982 6.875 4.375Z" fill="#1C1C1C"/>
<path d="M12.5 10H16.875C17.2202 10 17.5 9.72018 17.5 9.375C17.5 9.02982 17.2202 8.75 16.875 8.75H12.5C12.1548 8.75 11.875 9.02982 11.875 9.375C11.875 9.72018 12.1548 10 12.5 10Z" fill="#1C1C1C"/>
<path d="M11.875 4.375V11.875C11.875 12.2202 12.1548 12.5 12.5 12.5C12.8452 12.5 13.125 12.2202 13.125 11.875V4.375C13.125 4.02982 12.8452 3.75 12.5 3.75C12.1548 3.75 11.875 4.02982 11.875 4.375Z" fill="#1C1C1C"/>
</svg>
