<svg width="110" height="22" viewBox="0 0 110 22" fill="none" xmlns="http://www.w3.org/2000/svg">
<path d="M12.2629 12.5667C12.2629 13.4687 12.9942 14.2 13.8963 14.2C14.7983 14.2 15.5296 13.4687 15.5296 12.5667C15.5296 11.6646 14.7983 10.9333 13.8963 10.9333C12.9942 10.9333 12.2629 11.6646 12.2629 12.5667ZM12.2629 12.5667H9.3296M9.33624 7.13368L6.36863 5.74124M12.9861 11.2102L11.7221 9.21243M15.8787 15.4798L14.7217 13.9764M7.00794 10.9333L6.68031 9.99571M10.0612 17.8053L8.30446 14.083M9.29904 18.7711L6.34594 17.5277M15.1775 4.43132L12.3241 3.2573M6.14014 12.069L4.06995 11.3395M4.28864 15.3834L3.04016 12.5132M18.451 9.46099L17.16 6.5999M11.3599 17.8576L13.1643 14.1169M14.5898 10.9043L16.1615 6.64454M8.54954 11.0863L9.84606 9.21358M5.70365 15.4798L6.68031 13.8457M17.308 15.3621L18.451 12.4908M3.05464 9.4572L4.21171 6.51672M10.7963 6.23333L10.7629 4.26667M10.7963 6.23333C9.8942 6.23333 9.16293 6.9646 9.16293 7.86667C9.16293 8.76873 9.8942 9.5 10.7963 9.5C11.6983 9.5 12.4296 8.76873 12.4296 7.86667C12.4296 6.9646 11.6983 6.23333 10.7963 6.23333ZM10.7629 4.26667C11.665 4.26667 12.3963 3.5354 12.3963 2.63333C12.3963 1.73127 11.665 1 10.7629 1C9.86087 1 9.1296 1.73127 9.1296 2.63333C9.1296 3.5354 9.86087 4.26667 10.7629 4.26667ZM12.3186 7.13041L15.1657 5.60478M12.2638 18.7214L15.1175 17.4241M6.39859 4.39134L9.20901 3.13785M15.4814 12.1712L17.6143 11.4873M9.3296 12.5667C9.3296 13.4687 8.59833 14.2 7.69626 14.2C6.7942 14.2 6.06293 13.4687 6.06293 12.5667C6.06293 11.6646 6.7942 10.9333 7.69626 10.9333C8.59833 10.9333 9.3296 11.6646 9.3296 12.5667ZM5.77521 7.75203L5.36877 6.59728M4.06293 10.9667C4.06293 11.8687 3.33166 12.6 2.4296 12.6C1.52753 12.6 0.796265 11.8687 0.796265 10.9667C0.796265 10.0646 1.52753 9.33333 2.4296 9.33333C3.33166 9.33333 4.06293 10.0646 4.06293 10.9667ZM6.5296 16.9C6.5296 17.8021 5.79833 18.5333 4.89626 18.5333C3.9942 18.5333 3.26293 17.8021 3.26293 16.9C3.26293 15.9979 3.9942 15.2667 4.89626 15.2667C5.79833 15.2667 6.5296 15.9979 6.5296 16.9ZM12.3963 19.3667C12.3963 20.2687 11.665 21 10.7629 21C9.86087 21 9.1296 20.2687 9.1296 19.3667C9.1296 18.4646 9.86087 17.7333 10.7629 17.7333C11.665 17.7333 12.3963 18.4646 12.3963 19.3667ZM18.3296 16.9C18.3296 17.8021 17.5983 18.5333 16.6963 18.5333C15.7942 18.5333 15.0629 17.8021 15.0629 16.9C15.0629 15.9979 15.7942 15.2667 16.6963 15.2667C17.5983 15.2667 18.3296 15.9979 18.3296 16.9ZM20.7963 10.9667C20.7963 11.8687 20.065 12.6 19.1629 12.6C18.2609 12.6 17.5296 11.8687 17.5296 10.9667C17.5296 10.0646 18.2609 9.33333 19.1629 9.33333C20.065 9.33333 20.7963 10.0646 20.7963 10.9667ZM18.3296 5.03333C18.3296 5.9354 17.5983 6.66667 16.6963 6.66667C15.7942 6.66667 15.0629 5.9354 15.0629 5.03333C15.0629 4.13127 15.7942 3.4 16.6963 3.4C17.5983 3.4 18.3296 4.13127 18.3296 5.03333ZM6.5296 5.03333C6.5296 5.9354 5.79833 6.66667 4.89626 6.66667C3.9942 6.66667 3.26293 5.9354 3.26293 5.03333C3.26293 4.13127 3.9942 3.4 4.89626 3.4C5.79833 3.4 6.5296 4.13127 6.5296 5.03333Z" stroke="url(#paint0_linear_2080_11012)" stroke-width="0.8" stroke-linecap="round"/>
<path d="M29.1666 14.5V8.08518C29.1666 7.70988 29.2653 7.42346 29.4629 7.22593C29.6703 7.02839 29.9616 6.93457 30.3369 6.94444L34.9147 7.06296V8.72222L31.0777 8.61852V14.5H29.1666ZM35.5254 10.6926C35.5254 9.52716 35.876 8.60864 36.5772 7.93704C37.2785 7.25556 38.192 6.91481 39.318 6.91481C40.4439 6.91481 41.3476 7.24074 42.0291 7.89259C42.7204 8.54444 43.0661 9.42839 43.0661 10.5444V11.1667H37.3328C37.3525 11.7494 37.5402 12.2185 37.8957 12.5741C38.2612 12.9198 38.8093 13.0926 39.5402 13.0926C40.597 13.0926 41.2241 12.6926 41.4217 11.8926H43.3328C43.2044 12.5741 42.8192 13.2062 42.1772 13.7889C41.5352 14.3617 40.6562 14.6481 39.5402 14.6481C38.2266 14.6481 37.2291 14.2728 36.5476 13.5222C35.8661 12.7716 35.5254 11.8284 35.5254 10.6926ZM37.3328 10.0111H41.2587C41.2587 9.56667 41.0957 9.20123 40.7698 8.91481C40.4538 8.62839 39.9698 8.48519 39.318 8.48519C38.6661 8.48519 38.1723 8.63333 37.8365 8.92963C37.5007 9.21605 37.3328 9.57654 37.3328 10.0111ZM46.58 9.86296C46.1454 9.86296 45.7899 9.72469 45.5133 9.44815C45.2467 9.16173 45.1133 8.80617 45.1133 8.38148C45.1133 7.96667 45.2467 7.62099 45.5133 7.34444C45.7899 7.05802 46.1454 6.91481 46.58 6.91481C47.0047 6.91481 47.3553 7.05802 47.6319 7.34444C47.9183 7.62099 48.0615 7.96667 48.0615 8.38148C48.0615 8.7963 47.9183 9.14691 47.6319 9.43333C47.3553 9.71975 47.0047 9.86296 46.58 9.86296ZM46.58 14.6481C46.1454 14.6481 45.7899 14.5099 45.5133 14.2333C45.2467 13.9469 45.1133 13.5914 45.1133 13.1667C45.1133 12.7519 45.2467 12.4062 45.5133 12.1296C45.7899 11.8531 46.1454 11.7148 46.58 11.7148C47.0047 11.7148 47.3553 11.8531 47.6319 12.1296C47.9183 12.4062 48.0615 12.7519 48.0615 13.1667C48.0615 13.5914 47.9183 13.9469 47.6319 14.2333C47.3553 14.5099 47.0047 14.6481 46.58 14.6481Z" fill="url(#paint1_linear_2080_11012)"/>
<path d="M49.982 9.27037C49.982 7.71975 50.4511 6.44074 51.3894 5.43333C52.3276 4.41605 53.582 3.90741 55.1523 3.90741C56.5647 3.90741 57.7104 4.28272 58.5894 5.03333C59.4684 5.77407 59.9869 6.79136 60.1449 8.08518H58.2338C58.1153 7.27531 57.7844 6.65309 57.2412 6.21852C56.7079 5.78395 56.0215 5.56667 55.182 5.56667C54.1449 5.56667 53.3351 5.89753 52.7523 6.55926C52.1795 7.21111 51.8931 8.11481 51.8931 9.27037C51.8931 10.4259 52.1795 11.3346 52.7523 11.9963C53.3351 12.658 54.1449 12.9889 55.182 12.9889C56.0215 12.9889 56.7079 12.7716 57.2412 12.337C57.7844 11.8926 58.1153 11.2654 58.2338 10.4556H60.1449C59.9869 11.7593 59.4684 12.7864 58.5894 13.537C57.7104 14.2778 56.5647 14.6481 55.1523 14.6481C53.582 14.6481 52.3276 14.1444 51.3894 13.137C50.4511 12.1198 49.982 10.8309 49.982 9.27037ZM62.2738 13.6111C61.5133 12.9198 61.133 11.9765 61.133 10.7815C61.133 9.58642 61.5133 8.64321 62.2738 7.95185C63.0342 7.26049 64.017 6.91481 65.2219 6.91481C66.417 6.91481 67.3947 7.26049 68.1552 7.95185C68.9157 8.64321 69.296 9.58642 69.296 10.7815C69.296 11.9765 68.9157 12.9198 68.1552 13.6111C67.3947 14.3025 66.417 14.6481 65.2219 14.6481C64.017 14.6481 63.0342 14.3025 62.2738 13.6111ZM63.6219 9.16667C63.2367 9.56173 63.0441 10.1 63.0441 10.7815C63.0441 11.463 63.2367 12.0012 63.6219 12.3963C64.0071 12.7914 64.5404 12.9889 65.2219 12.9889C65.9034 12.9889 66.4367 12.7914 66.8219 12.3963C67.2071 12.0012 67.3997 11.463 67.3997 10.7815C67.3997 10.1 67.2071 9.56173 66.8219 9.16667C66.4367 8.7716 65.9034 8.57407 65.2219 8.57407C64.5404 8.57407 64.0071 8.7716 63.6219 9.16667ZM74.8391 8.57407C74.1083 8.57407 73.5354 8.82099 73.1206 9.31481C72.7058 9.79877 72.4984 10.5395 72.4984 11.537V14.5H70.5873V7.06296H72.4984V8.11481L72.1577 9.25556H72.6466C72.8046 8.55432 73.1206 7.99136 73.5947 7.56667C74.0786 7.1321 74.7058 6.91481 75.4762 6.91481C76.3947 6.91481 77.1107 7.20617 77.6243 7.78889C78.1478 8.36173 78.4095 9.19136 78.4095 10.2778V14.5H76.5132V10.5593C76.5132 9.84815 76.3799 9.33951 76.1132 9.03333C75.8564 8.72716 75.4317 8.57407 74.8391 8.57407ZM82.9525 12.9889L85.6339 12.8407V14.5L82.1969 14.6481C81.8216 14.658 81.5352 14.5642 81.3376 14.3667C81.1401 14.1691 81.0413 13.8778 81.0413 13.4926V8.72222H79.3228V7.06296H81.0413V5.46296L82.9525 4.87037V7.06296H85.3376V8.72222H82.9525V12.9889ZM86.9357 14.5V8.08518C86.9357 7.70988 87.0344 7.42346 87.232 7.22593C87.4394 7.02839 87.7307 6.93457 88.106 6.94444L92.6838 7.06296V8.72222L88.8468 8.61852V14.5H86.9357ZM94.4352 13.6111C93.6747 12.9198 93.2945 11.9765 93.2945 10.7815C93.2945 9.58642 93.6747 8.64321 94.4352 7.95185C95.1957 7.26049 96.1784 6.91481 97.3834 6.91481C98.5784 6.91481 99.5562 7.26049 100.317 7.95185C101.077 8.64321 101.457 9.58642 101.457 10.7815C101.457 11.9765 101.077 12.9198 100.317 13.6111C99.5562 14.3025 98.5784 14.6481 97.3834 14.6481C96.1784 14.6481 95.1957 14.3025 94.4352 13.6111ZM95.7834 9.16667C95.3982 9.56173 95.2056 10.1 95.2056 10.7815C95.2056 11.463 95.3982 12.0012 95.7834 12.3963C96.1685 12.7914 96.7019 12.9889 97.3834 12.9889C98.0648 12.9889 98.5982 12.7914 98.9834 12.3963C99.3685 12.0012 99.5611 11.463 99.5611 10.7815C99.5611 10.1 99.3685 9.56173 98.9834 9.16667C98.5982 8.7716 98.0648 8.57407 97.3834 8.57407C96.7019 8.57407 96.1685 8.7716 95.7834 9.16667ZM102.102 14.5V12.8407H104.176V5.16667L102.502 5.27037V3.61111L104.902 3.49259C105.287 3.47284 105.578 3.56173 105.776 3.75926C105.983 3.95679 106.087 4.25309 106.087 4.64815V12.8407H108.146V14.5H102.102Z" fill="#2684FF"/>
<defs>
<linearGradient id="paint0_linear_2080_11012" x1="17.7963" y1="25.25" x2="-5.99496" y2="16.1993" gradientUnits="userSpaceOnUse">
<stop stop-color="#855CBF"/>
<stop offset="0.494792" stop-color="#D444B4"/>
<stop offset="0.963543" stop-color="#FF493A"/>
</linearGradient>
<linearGradient id="paint1_linear_2080_11012" x1="97.0536" y1="24.5375" x2="66.6699" y2="-24.7384" gradientUnits="userSpaceOnUse">
<stop stop-color="#855CBF"/>
<stop offset="0.494792" stop-color="#D444B4"/>
<stop offset="0.963543" stop-color="#FF493A"/>
</linearGradient>
</defs>
</svg>
